<?xml version="1.0" encoding="utf-8"?>
<!-- Generator: Adobe Illustrator 26.0.1, SVG Export Plug-In . SVG Version: 6.00 Build 0)  -->
<svg version="1.1" id="Layer_1" xmlns="http://www.w3.org/2000/svg" xmlns:xlink="http://www.w3.org/1999/xlink" x="0px" y="0px"
	 viewBox="0 0 251.6158 69.6308" style="enable-background:new 0 0 251.6158 69.6308;" xml:space="preserve">
<style type="text/css">
	.st0{fill:#1D1D1B;}
	.st1{fill-rule:evenodd;clip-rule:evenodd;fill:#ED9FF3;}
	.st2{fill-rule:evenodd;clip-rule:evenodd;fill:#FF6E14;}
	.st3{fill:#3F49A8;}
</style>
<g>
	<path class="st0" d="M96.567,36.871c0,3.3157-2.5298,5.5111-7.5869,6.5862c-1.5176,0.2829-2.96,0.4244-4.3291,0.4244H71.9879
		v-1.5278c0.8599,0,1.4258-0.6281,1.6973-1.8842c0.1357-0.713,0.2036-1.4825,0.2036-2.3085V24.1739
		c0-2.3764-0.3618-3.8702-1.0864-4.4813c-0.373-0.1811-0.645-0.3565-0.8145-0.5262v-1.1882H83.836
		c5.251,0,8.793,1.1769,10.626,3.5308c0.5435,0.8035,0.8149,1.7597,0.8149,2.8687c0,2.7039-1.3569,4.6055-4.0474,5.7187
		c1.0791,0.339,2.2241,0.9617,3.436,1.869c1.2676,1.324,1.9014,2.8008,1.9014,4.4304V36.871z M83.1568,20.1849h-0.9844v8.8608
		h0.9165c1.8223,0,3.0669-0.8091,3.7344-2.4274c0.249-0.6111,0.3735-1.358,0.3735-2.2407c0-2.2067-0.9111-3.5647-2.7334-4.0739
		C83.943,20.2245,83.5079,20.1849,83.1568,20.1849z M89.234,36.5315c0-2.6028-0.9116-4.2607-2.7334-4.9736
		c-0.4404-0.1132-0.7861-0.1698-1.0352-0.1698h-3.293v10.2867h1.6636c2.3423,0,4.0171-0.9449,5.0244-2.8348
		C89.1095,38.0026,89.234,37.2331,89.234,36.5315z M115.5445,27.8914v-0.3395c0-0.3848-0.0503-0.8204-0.1533-1.3071
		c-0.5654-1.7201-1.7705-2.5801-3.6147-2.5801c-2.2476,0-4.0425,1.1967-5.3979,3.5518v-4.4854
		c-6.5186,3.1912-9.7773,4.9113-9.7773,5.1603v0.7469c1.3125,0.8261,1.9688,2.8631,1.9688,6.1109v2.9875
		c0,3.0667-0.6338,4.6001-1.9009,4.6001v1.5278h11.5425v-1.5278c-0.3848,0-0.6172-0.0226-0.6963-0.0679
		c-0.7017-0.4526-1.0801-1.6918-1.1367-3.7175v-7.6216c0.8823-1.2448,2.1387-1.8672,3.7681-1.8672h0.4756
		c1.0186,0,2.5513,0.3791,4.6006,1.1373C115.4366,29.1927,115.5445,28.4232,115.5445,27.8914z M137.2066,43.8815h-7.3662
		c-1.0537,0-1.7437-0.4697-2.0718-1.4089c-1.4937,1.3467-3.248,2.02-5.2612,2.02h-0.7471c-3.2588,0-5.3701-1.2278-6.332-3.6835
		c-0.1924-0.5092-0.2891-1.0977-0.2891-1.7654v-0.4073c0-2.5915,1.5908-4.3795,4.7705-5.364
		c1.3579-0.3282,2.5625-0.4922,3.6162-0.4922c0.4966,0,1.7305,0.017,3.6992,0.0509v-0.3055c0-0.8713,0.0229-1.822,0.0679-2.8517
		c0-0.7808-0.2427-1.5616-0.729-2.3425c-0.3623-0.3734-0.7646-0.5601-1.2051-0.5601c-2.7622,0-4.5894,1.4711-5.4834,4.4134
		c-0.1694,0.9958-0.4473,1.4938-0.8311,1.4938h-0.6113c-0.3516-0.0792-1.2456-1.8898-2.6826-5.4319
		c2.6592-2.2407,5.8618-3.361,9.6084-3.361h0.6113c4.5366,0,7.3945,1.6013,8.5718,4.8038c0.2827,1.109,0.4238,1.9803,0.4238,2.6141
		c0,0.86,0.0225,3.7118,0.0679,8.5552c0,1.3353,0.4072,2.1445,1.2222,2.4274l0.9507,0.1358V43.8815z M127.1925,40.0961
		l-0.0352-0.3564v-4.685h-1.4585c-1.4497,0-2.4229,0.5375-2.9199,1.6126c-0.2036,0.5092-0.3066,1.0298-0.3066,1.5616
		c0,0.9846,0.3623,1.6296,1.0864,1.9351c0.3066,0.1471,0.6562,0.2206,1.0537,0.2206h0.6108
		C125.8448,40.3847,126.5011,40.2885,127.1925,40.0961z M139.6681,34.7491v3.1912c0,0.8035-0.0449,1.4655-0.1357,1.986
		c-0.2373,1.6069-0.8257,2.4104-1.7651,2.4104v1.5278h11.5425v-1.5278c-0.4185,0-0.6899-0.0452-0.8145-0.1358
		c-0.6792-0.7242-1.0186-2.0087-1.0186-3.8532V22.7311c-6.5181,3.1912-9.7773,4.9113-9.7773,5.1603v1.1034h0.4248
		C139.1529,29.5493,139.6681,31.4673,139.6681,34.7491z M143.3687,22.8838h0.2715c0.2148,0,0.5146-0.0283,0.8994-0.0849
		c2.229-0.8148,3.3442-2.1727,3.3442-4.0739v-0.2716c0-0.2037-0.0288-0.4809-0.0854-0.8317c-0.8032-2.218-2.189-3.327-4.1582-3.327
		h-0.2715c-0.2148,0-0.5156,0.0283-0.8994,0.0848c-2.23,0.8148-3.3442,2.1728-3.3442,4.0739v0.2716
		c0,0.2037,0.0278,0.481,0.0854,0.8318C140.0128,21.7748,141.3995,22.8838,143.3687,22.8838z M152.0435,34.7491v3.1912
		c0,0.8035-0.0454,1.4655-0.1362,1.986c-0.2373,1.6069-0.8257,2.4104-1.7651,2.4104v1.5278h11.543v-1.5278
		c-0.4189,0-0.6904-0.0452-0.8149-0.1358c-0.6792-0.7242-1.0186-2.0087-1.0186-3.8532V30.132
		c0.9165-0.9845,1.8784-1.4768,2.8857-1.4768c1.7427,0,2.6143,2.0313,2.6143,6.0939v3.1912c0,0.8035-0.0454,1.4655-0.1362,1.986
		c-0.2373,1.6069-0.8257,2.4104-1.7651,2.4104v1.5278h11.543v-1.5278c-0.4189,0-0.6904-0.0452-0.8149-0.1358
		c-0.6792-0.7242-1.0186-2.0087-1.0186-3.8532v-8.6232c0-0.2715-0.0513-0.6393-0.1523-1.1033
		c-1.0986-3.2592-3.2314-4.8887-6.3999-4.8887h-0.4751c-2.6411,0-4.7314,0.9009-6.2808,2.687v-3.6885
		c-6.5181,3.1912-9.7773,4.9113-9.7773,5.1603v0.7469C151.3868,29.4531,152.0435,31.49,152.0435,34.7491z M189.1158,37.9404V20.0321
		h0.1021c0.894,0,1.6748,0.2943,2.3423,0.8827c1.3467,1.2675,2.3765,2.6028,3.0898,4.006c0.5542,1.1656,0.9731,1.7993,1.2559,1.9012
		h1.2222v-8.8608h-24.3076v8.8608h1.5278c0.5317-1.1203,0.8423-1.6974,0.9326-1.7314c1.7544-3.3723,3.5713-5.0585,5.4497-5.0585
		h0.1021v17.9083c0,0.8035-0.0454,1.4655-0.1362,1.986c-0.2373,1.6069-0.8257,2.4104-1.7651,2.4104v1.5278h12.0181v-1.5278
		c-0.3169,0-0.5947-0.0452-0.8315-0.1358C189.4493,41.6239,189.1158,40.2037,189.1158,37.9404z M196.0079,27.8914v0.7469
		c1.3125,0.8261,1.9688,2.8631,1.9688,6.1109v2.9875c0,3.0667-0.6338,4.6001-1.9009,4.6001v1.5278h11.5425v-1.5278
		c-0.3848,0-0.6172-0.0226-0.6963-0.0679c-0.7017-0.4526-1.0801-1.6918-1.1367-3.7175v-7.6216
		c0.8823-1.2448,2.1387-1.8672,3.7681-1.8672h0.4756c1.0186,0,2.5513,0.3791,4.6006,1.1373
		c0.2139-1.0072,0.3218-1.7767,0.3218-2.3086v-0.3395c0-0.3848-0.0503-0.8204-0.1533-1.3071
		c-0.5654-1.7201-1.7705-2.5801-3.6147-2.5801c-2.2476,0-4.0425,1.1967-5.3979,3.5519v-4.4855
		C199.2667,25.9223,196.0079,27.6424,196.0079,27.8914z M221.5377,22.8838h0.2715c0.2148,0,0.5146-0.0283,0.8994-0.0849
		c2.229-0.8148,3.3442-2.1727,3.3442-4.0739v-0.2716c0-0.2037-0.0288-0.4809-0.0854-0.8317c-0.8032-2.218-2.189-3.327-4.1582-3.327
		h-0.2715c-0.2148,0-0.5156,0.0283-0.8994,0.0848c-2.23,0.8148-3.3442,2.1728-3.3442,4.0739v0.2716
		c0,0.2037,0.0278,0.481,0.0854,0.8318C218.1817,21.7748,219.5685,22.8838,221.5377,22.8838z M217.837,34.7491v3.1912
		c0,0.8035-0.0454,1.4655-0.1357,1.986c-0.2378,1.6069-0.8262,2.4104-1.7651,2.4104v1.5278h11.5425v-1.5278
		c-0.4185,0-0.6899-0.0452-0.8145-0.1358c-0.6792-0.7242-1.0186-2.0087-1.0186-3.8532V22.7311
		c-6.5186,3.1912-9.7773,4.9113-9.7773,5.1603v1.1034h0.4248C217.3219,29.5493,217.837,31.4673,217.837,34.7491z M251.6158,33.0517
		v0.679c0,3.1573-1.1772,5.9016-3.5308,8.2327c-1.9805,1.4938-4.2549,2.2407-6.8228,2.2407h-0.6792
		c-1.54,0-2.5923-0.1188-3.1582-0.3565v2.037c0,1.8446,0.3394,3.129,1.0186,3.8533c0.1245,0.0905,0.396,0.1358,0.8149,0.1358v1.5277
		h-11.543v-1.5277c1.2676,0,1.9014-1.5334,1.9014-4.6002V34.817c0-3.2478-0.6567-5.2848-1.9692-6.1108v-1.3071
		c0.3394,0,3.5986-1.5334,9.7773-4.6002v3.5025c0.1948-0.2151,0.4194-0.4532,0.6792-0.7186
		c1.4824-1.2787,3.2363-1.9182,5.2627-1.9182h0.8828c2.9199,0,5.0688,1.5673,6.4507,4.702
		C251.3111,29.8718,251.6158,31.4334,251.6158,33.0517z M243.4679,36.7182c0-4.1418-0.7471-6.9426-2.2407-8.4025
		c-0.3506-0.2716-0.7241-0.4074-1.1191-0.4074h-0.0679c-0.9858,0-1.8394,0.4753-2.564,1.4259l-0.0513,0.2206v5.6696
		c0,3.6779,0.792,5.9298,2.3765,6.7559c0.4185,0.1471,0.7695,0.2206,1.0532,0.2206c1.4814,0,2.353-1.4937,2.6133-4.4813V36.7182z"/>
	<g>
		<g>
			<path class="st1" d="M27.1993,4.8947c0.0142-2.2236-0.7021-3.1172-2.006-4.0638c-1.2665-0.9194-3.1935-1.1178-4.8841-0.3838
				c-1.2135,0.5268-1.1228,0.9416-1.8189,1.3374c-0.5413,0.3077-1.613,0.3912-2.315,0.5985
				c-2.7246,0.8048-5.4556,3.0857-6.4356,5.7039c-0.7131,1.905-0.7571,2.517-0.7571,5.07
				c-1.2564,0.6648-2.1496,1.6396-3.0196,2.8074c-6.1134,8.2058-2.4307,13.4811-3.4677,15.2081
				c-2.9506,4.9138-3.4371,10.7997-0.6355,15.8146c1.5813,2.8306,3.8498,4.6245,3.9547,4.7858
				c0.3446,0.5296,0.2741,1.7881,0.4371,2.4764c2.1613,9.1278,11.5555,13.7919,20.0965,10.2704
				c0.5188-0.2139,0.844-0.7382,0.8441-1.2993L27.1993,4.8947z"/>
		</g>
		<g>
			<path class="st2" d="M30.3258,62.7838c0.0001,0.8585,0.5361,1.6301,1.3402,1.9309c8.4054,3.1446,17.4809-1.5139,19.6005-10.4654
				c0.163-0.6883,0.0924-1.9468,0.4371-2.4764c0.105-0.1613,2.3735-1.9552,3.9547-4.7858
				c2.8016-5.0149,2.3151-10.9008-0.6355-15.8146c-1.037-1.727,2.6456-7.0022-3.4677-15.2081
				c-0.87-1.1678-1.7632-2.1427-3.0196-2.8074c0-2.553-0.044-3.165-0.7571-5.07c-0.98-2.6183-3.711-4.8992-6.4356-5.7039
				c-0.702-0.2073-1.7737-0.2908-2.315-0.5985c-0.6961-0.3958-0.6054-0.8106-1.8189-1.3374
				c-1.6907-0.734-3.6176-0.5356-4.8841,0.3838c-1.304,0.9466-2.0202,1.8401-2.006,4.0638L30.3258,62.7838z"/>
		</g>
		<path class="st3" d="M10.3678,23.2174c0.1045-0.5725,0.6499-0.9578,1.2241-0.8488c2.0913,0.3776,4.2002-0.0803,5.9443-1.2901
			c1.5142-1.0498,2.623-2.6033,3.1211-4.3733c0.1597-0.5596,0.7397-0.8868,1.3003-0.7283c0.5596,0.1579,0.8857,0.7397,0.7285,1.2993
			c-0.6318,2.2402-2.0342,4.2056-3.9482,5.5338c-1.7031,1.1805-3.6802,1.7952-5.709,1.7952c-0.6016,0-1.2075-0.054-1.8115-0.1636
			C10.6441,24.3383,10.2647,23.7899,10.3678,23.2174z M23.2071,47.2237c-1.0767,1.0535-2.4287,1.7767-3.9102,2.092
			c-0.5688,0.1209-0.9321,0.6805-0.8115,1.2495c0.106,0.4954,0.543,0.8344,1.0298,0.8344c0.0728,0,0.146-0.0072,0.2202-0.0232
			c1.8721-0.3981,3.582-1.3132,4.9448-2.6465c0.416-0.4069,0.4229-1.074,0.0166-1.4896
			C24.2906,46.8245,23.6241,46.8163,23.2071,47.2237z M14.7696,55.3942c-0.5474-0.1981-1.1499,0.0818-1.3506,0.6281
			c-0.1997,0.5468,0.0811,1.1517,0.6284,1.3513c2.0073,0.733,3.6172,2.3785,4.3076,4.4016c0.1489,0.4382,0.5586,0.714,0.9966,0.714
			c0.1133,0,0.2275-0.0186,0.3408-0.0571c0.5503-0.1877,0.8442-0.7865,0.6562-1.3369
			C19.4425,58.4357,17.4083,56.3581,14.7696,55.3942z M13.5177,11.8115c0.1357,0.0586,0.2769,0.0864,0.4165,0.0864
			c0.4077,0,0.7964-0.2386,0.9673-0.6373c0.8467-1.9634,2.5801-3.4783,4.6377-4.0524c0.5605-0.1564,0.8877-0.7376,0.7314-1.2978
			c-0.1567-0.5612-0.7417-0.8847-1.2974-0.7319c-2.6655,0.7438-4.9111,2.7062-6.0059,5.2488
			C12.7369,10.9612,12.9825,11.581,13.5177,11.8115z M19.1891,38.2904c0.041,0.0031,0.0771-0.0129,0.1172-0.0145
			c1.1704,0.7336,2.4712,1.2338,3.853,1.4367c0.0522,0.0078,0.104,0.0113,0.1543,0.0113c0.5142,0,0.9639-0.3765,1.041-0.9001
			c0.0845-0.5761-0.3135-1.1111-0.8887-1.1954c-1.5659-0.2299-3.0151-0.9182-4.1914-1.9891
			c-1.3608-1.2417-2.2539-2.9283-2.5132-4.7488c-0.082-0.5766-0.6162-0.9763-1.1924-0.894
			c-0.5752,0.0818-0.9761,0.6152-0.894,1.1913c0.2715,1.9,1.0942,3.6789,2.3379,5.1276c-1.9302,0.3416-3.7202,1.2784-5.1021,2.7399
			c-0.4004,0.4228-0.3809,1.0894,0.042,1.4891c0.2041,0.1929,0.4629,0.288,0.7236,0.288c0.2798,0,0.5586-0.1106,0.7651-0.3297
			C14.9098,38.9493,17.0626,38.1263,19.1891,38.2904z M11.2769,46.9094c-2.7466-1.0803-4.6602-3.5719-4.9946-6.5024
			c-0.2075-1.8312,0.2295-3.6881,1.2324-5.2292c0.3179-0.4877,0.1802-1.1399-0.3076-1.4573
			c-0.4917-0.3194-1.1406-0.179-1.4575,0.3081c-1.2695,1.9501-1.8242,4.2997-1.5596,6.6165
			c0.4214,3.7067,2.8413,6.8583,6.3154,8.225c0.1265,0.0499,0.2573,0.0735,0.3857,0.0735c0.4199,0,0.8169-0.2536,0.9805-0.6682
			C12.0846,47.734,11.818,47.1224,11.2769,46.9094z M38.7808,21.7565c1.7031,1.1805,3.6802,1.7952,5.709,1.7952
			c0.6016,0,1.2075-0.054,1.8115-0.1636c0.5732-0.1034,0.9526-0.6517,0.8496-1.2242c-0.1045-0.5725-0.6533-0.9583-1.2241-0.8488
			c-2.0874,0.376-4.2002-0.0797-5.9453-1.29c-1.5142-1.0504-2.6221-2.6033-3.1201-4.3733
			c-0.1572-0.5607-0.7397-0.8853-1.2993-0.7294c-0.5605,0.1579-0.8867,0.7397-0.7295,1.2993
			C35.4635,18.4619,36.8643,20.4279,38.7808,21.7565z M38.1627,49.2926c0.4868,0,0.9238-0.339,1.0298-0.8344
			c0.1206-0.5689-0.2427-1.1285-0.8115-1.2495c-1.4814-0.3153-2.8335-1.0385-3.9092-2.0914
			c-0.4136-0.4069-1.0806-0.3992-1.4897,0.0154c-0.4062,0.4156-0.3994,1.0828,0.0166,1.4897
			c1.3608,1.3333,3.0708,2.2484,4.9438,2.647C38.0167,49.2854,38.0899,49.2926,38.1627,49.2926z M42.7481,55.3942
			c-2.6011,0.9501-4.686,3.0812-5.5781,5.7014c-0.188,0.5504,0.106,1.1492,0.6572,1.3369c0.1123,0.038,0.2275,0.0566,0.3398,0.0566
			c0.438,0,0.8477-0.2762,0.9966-0.7145c0.6895-2.0226,2.2993-3.6681,4.3066-4.4011c0.5474-0.1996,0.8281-0.8045,0.6284-1.3513
			C43.898,55.476,43.2955,55.1972,42.7481,55.3942z M37.9796,7.2082c2.0576,0.5741,3.791,2.0889,4.6357,4.0524
			c0.1719,0.3986,0.5605,0.6373,0.9683,0.6373c0.1396,0,0.2808-0.0278,0.4165-0.0864c0.5337-0.23,0.7808-0.8498,0.5513-1.3842
			c-1.0947-2.5426-3.3394-4.5045-6.0059-5.2488c-0.5557-0.1548-1.1406,0.1697-1.2974,0.7319
			C37.0919,6.4706,37.419,7.0518,37.9796,7.2082z M51.7682,34.0287c-0.3169-0.4871-0.9678-0.6275-1.4575-0.3081
			c-0.4878,0.3174-0.6255,0.9696-0.3076,1.4573c1.0029,1.5411,1.4399,3.398,1.2324,5.2287c-0.3345,2.931-2.248,5.4226-4.9946,6.5029
			c-0.541,0.213-0.8076,0.8245-0.5947,1.3661c0.1636,0.4146,0.5605,0.6682,0.9805,0.6682c0.1284,0,0.2593-0.0237,0.3857-0.0735
			c3.4741-1.3667,5.8936-4.5184,6.3154-8.2255C53.5924,38.3284,53.0377,35.9788,51.7682,34.0287z M34.0518,32.1363
			c1.5669,0.2299,3.0161,0.9182,4.1914,1.9902c1.3618,1.2412,2.2549,2.9273,2.5132,4.7473c0.0752,0.5257,0.5254,0.9053,1.042,0.9053
			c0.0493,0,0.0986-0.0031,0.1494-0.0103c0.5762-0.0823,0.9761-0.6152,0.895-1.1913c-0.27-1.9017-1.0942-3.6823-2.3403-5.1308
			c1.9312-0.3491,3.7446-1.2981,5.1055-2.7372c0.4004-0.4229,0.3818-1.0895-0.041-1.4891
			c-0.4219-0.3981-1.0898-0.3822-1.4897,0.0416c-1.4692,1.554-3.6294,2.379-5.7466,2.2124
			c-0.042-0.0033-0.0786,0.0129-0.1196,0.0144c-1.1699-0.7335-2.4707-1.2338-3.8525-1.4367
			c-0.5854-0.09-1.1113,0.3138-1.1953,0.8889C33.0787,31.517,33.4766,32.052,34.0518,32.1363z"/>
	</g>
</g>
</svg>
